<?xml version="1.0" encoding="UTF-8" standalone="no"?>
<!-- Created with Inkscape (http://www.inkscape.org/) -->

<svg
   width="512"
   height="512"
   viewBox="0 0 512 512"
   version="1.1"
   id="svg1"
   xml:space="preserve"
   inkscape:version="1.4.3 (0d15f75, 2025-12-25)"
   sodipodi:docname="logo-edit.svg"
   inkscape:export-filename="logo1.svg"
   inkscape:export-xdpi="96"
   inkscape:export-ydpi="96"
   xmlns:inkscape="http://www.inkscape.org/namespaces/inkscape"
   xmlns:sodipodi="http://sodipodi.sourceforge.net/DTD/sodipodi-0.dtd"
   xmlns="http://www.w3.org/2000/svg"
   xmlns:svg="http://www.w3.org/2000/svg"><sodipodi:namedview
     id="namedview1"
     pagecolor="#ffffff"
     bordercolor="#000000"
     borderopacity="0.25"
     inkscape:showpageshadow="2"
     inkscape:pageopacity="0.0"
     inkscape:pagecheckerboard="0"
     inkscape:deskcolor="#d1d1d1"
     inkscape:document-units="px"
     inkscape:zoom="1"
     inkscape:cx="225.5"
     inkscape:cy="262"
     inkscape:window-width="1536"
     inkscape:window-height="890"
     inkscape:window-x="-6"
     inkscape:window-y="-6"
     inkscape:window-maximized="1"
     inkscape:current-layer="layer3"><inkscape:page
       x="0"
       y="0"
       width="512"
       height="512"
       id="page2"
       margin="0"
       bleed="0" /></sodipodi:namedview><defs
     id="defs1" /><g
     inkscape:groupmode="layer"
     id="layer2"
     inkscape:label="图层 2"
     style="display:inline"><path
       style="display:inline;fill:#a97448;fill-opacity:1;stroke:#000000;stroke-width:4;stroke-linecap:butt;stroke-linejoin:round;stroke-dasharray:none;stroke-opacity:1;paint-order:stroke fill markers"
       d="m 214.63777,244.06331 0.60851,-55.2759 50.90852,-1.18885 v 180.70588 l 6.34056,3.17028 43.59133,-19.81424 -0.54052,17.17622 -43.05081,33.54823 c -7.10243,5.60899 -6.47058,12.32287 -3.17028,19.41796 3.60445,7.03451 1.55883,10.59205 13.86997,22.98452 3.9435,5.48844 14.36807,10.38768 26.46317,15.13506 8.62229,7.75794 16.11604,15.48618 -3.08237,22.512 -13.72848,-5.43514 -9.44716,-5.51324 -21.39938,0.79257 -17.83565,-11.60714 -14.34473,-10.05284 -32.49536,-0.39628 -13.89322,-5.81226 -5.03234,-7.14833 -20.60681,0.39628 -14.68763,-11.28599 -6.8671,-11.16646 -21.00309,0 -1.23773,-1.90481 -2.88252,-3.53824 -6.34056,-3.96285 -3.89835,0.32869 -6.27096,2.18312 -8.71827,3.96285 -5.53097,-4.40069 -8.74795,-15.9611 -20.48249,-2.07757 -14.90283,2.21719 -23.83287,-2.09904 -13.99429,-16.54782 6.73591,-3.79644 14.80881,-9.43126 25.75852,-19.02167 6.9761,-6.05855 16.32384,-16.63398 26.55108,-28.13622 3.18631,-11.97256 4.30816,-30.13848 0.79257,-62.21672 -11.65992,-15.05882 -31.06886,-30.11765 -46.76161,-45.17647 l 3.96285,-15.85139 27.73994,16.64396 c 6.60073,3.6846 12.23111,3.97297 15.85139,-2.77399 l 0.39629,-29.72137 c -11.20505,-9.42045 -12.96488,-20.19754 -1.18886,-34.28447 z"
       id="path5"
       sodipodi:nodetypes="ccccccccccccccccccccccccccccc" /><path
       d="m 214.63777,244.06331 -0.18406,-42.59478 h 23.56486 c 0,0 -0.39628,114.89445 -0.39628,219.88364 -17.80704,33.31701 -11.6314,53.0347 -16.2564,53.4552 -1.64782,0.0149 -3.22669,2.83644 -10.29468,8.41967 -1.23773,-1.90481 -2.88252,-3.53824 -6.34056,-3.96285 -3.89835,0.32869 -6.27096,2.18312 -8.71827,3.96285 -5.53097,-4.40069 -8.74795,-15.9611 -20.48249,-2.07757 -14.90283,2.21719 -23.83287,-2.09904 -13.99429,-16.54782 6.73591,-3.79644 14.80881,-9.43126 25.75852,-19.02167 6.9761,-6.05855 16.32384,-16.63398 26.55108,-28.13622 3.18631,-11.97256 4.30816,-30.13848 0.79257,-62.21672 -11.65992,-15.05882 -31.06886,-30.11765 -46.76161,-45.17647 l 4.75542,-4.35913 25.75851,21.79566 c 18.72036,16.47787 19.0011,-7.28972 17.04025,-19.41795 l 0.39629,-29.72137 c -11.20505,-9.42045 -12.96488,-20.19754 -1.18886,-34.28447 z"
       style="display:inline;opacity:1;fill:#705448;fill-opacity:1;stroke:none;stroke-width:4;stroke-linecap:butt;stroke-linejoin:round;stroke-dasharray:none;stroke-opacity:1;paint-order:stroke fill markers"
       id="path1-8"
       sodipodi:nodetypes="ccccccccccccccccccc" /><path
       style="opacity:1;fill:#a97448;fill-opacity:1;stroke:none;stroke-width:4.16625;stroke-linejoin:round;paint-order:stroke fill markers"
       d="m 216.57903,249.21126 v 22.79946 c 3.31589,-2.27995 5.13729,-5.77586 5.46421,-10.48775 -0.32692,-4.91455 -2.14832,-9.01845 -5.46421,-12.31171 z"
       id="path2"
       sodipodi:nodetypes="cccc" /><path
       style="opacity:1;fill:#a97448;fill-opacity:1;stroke:none;stroke-width:4;stroke-linejoin:round;paint-order:stroke fill markers"
       d="m 224.34676,430.32303 c -7.18738,13.51615 -13.66991,25.62259 -21.79567,41.01548 -1.23934,3.09834 6.06012,5.69148 8.12384,3.76471 5.89814,-5.50672 16.85981,-46.72454 13.67183,-44.78019 z"
       id="path3"
       sodipodi:nodetypes="ccsc" /><path
       style="display:inline;opacity:1;fill:#97bf5c;fill-opacity:1;stroke:#000000;stroke-width:4;stroke-linecap:butt;stroke-linejoin:round;stroke-dasharray:none;stroke-opacity:1;paint-order:stroke fill markers"
       d="m 192.48047,206.33825 c 22.04352,32.96329 50.82764,-0.36225 50.99926,-0.56043 6.50058,1.15759 11.79258,0.50231 16.81294,-0.56043 10.54371,4.99955 18.97081,1.5327 25.77984,-8.40647 13.15852,4.99971 10.59254,19.02417 32.50502,-4.48345 3.37696,0.0216 6.33696,-0.58233 8.96691,-1.68129 6.27199,-7.33012 7.65973,-14.33463 8.40647,-21.2964 14.97192,-12.08417 9.50828,-21.33007 -2.24173,-29.70286 10.19888,-4.36355 12.63576,-9.69468 3.78291,-18.91456 C 354.8736,109.5172 351.87126,89.79916 329.08562,92.570686 325.51635,65.769337 316.20727,67.807162 308.48977,61.74696 313.20157,60.415243 294.94083,20.304071 269.82,38.208842 c -7.06682,-8.452234 -14.25685,-22.076368 -30.26329,-7.285608 -3.48835,-12.831495 -27.69435,-15.51768 -26.34028,5.043882 -22.4729,-9.541829 -84.73322,10.968084 -58.28486,43.153217 -21.45862,18.52743 -35.09412,31.961847 -12.32949,46.515807 -17.13171,-0.21505 -15.96573,24.22276 -6.16474,28.02156 -7.01517,23.07152 1.33525,22.89765 8.40647,24.65899 0.54022,12.15392 8.52083,17.45484 23.2579,16.53272 2.64174,14.15339 9.08164,21.15733 24.37876,11.48884 z"
       id="path1"
       sodipodi:nodetypes="cccccccccccccccccccc" /><path
       d="m 192.48047,206.33825 c 22.04352,32.96329 50.82764,-0.36225 50.99926,-0.56043 6.50058,1.15759 11.79258,0.50231 16.81294,-0.56043 10.54371,4.99955 18.97081,1.5327 25.77984,-8.40647 13.15852,4.99971 10.59254,19.02417 32.50502,-4.48345 3.37696,0.0216 6.33696,-0.58233 8.96691,-1.68129 6.27199,-7.33012 7.65973,-14.33463 8.40647,-21.2964 1.83338,-1.63756 -1.15569,-5.6289 -4.15051,-4.16146 -6.6535,0.14495 -16.08639,19.37529 -24.13409,13.76549 -15.49765,-9.82963 -19.79603,1.1649 -23.59684,3.87501 -25.22739,-1.51175 -35.22397,2.02642 -34.24156,3.21973 -44.12906,16.59142 -31.65185,2.81945 -47.65899,-2.77128 -14.55296,2.66754 -15.33831,8.83909 -30.43151,-16.25127 -25.8733,-7.32842 -27.09654,-25.54798 -29.13533,-41.38986 -17.13171,-0.21505 -15.96573,24.22276 -6.16474,28.02156 -7.01517,23.07152 1.33525,22.89765 8.40647,24.65899 0.54022,12.15392 8.52083,17.45484 23.2579,16.53272 2.64174,14.15339 9.08164,21.15733 24.37876,11.48884 z"
       style="display:inline;opacity:1;fill:#41675c;fill-opacity:1;stroke:none;stroke-width:4;stroke-linecap:butt;stroke-linejoin:round;stroke-dasharray:none;stroke-opacity:1;paint-order:stroke fill markers"
       id="path1-5"
       sodipodi:nodetypes="cccccccccccccccccc" /></g><g
     inkscape:groupmode="layer"
     id="layer3"
     inkscape:label="Layer 1"
     style="display:inline"><path
       style="display:inline;opacity:1;fill:#97bf5c;fill-opacity:1;stroke:#000000;stroke-width:4;stroke-linejoin:round;stroke-opacity:1;paint-order:stroke fill markers"
       d="m 150.72835,262.94183 c -24.99081,-0.0731 -28.88749,18.75644 -21.01618,31.38416 -10.31489,10.59858 -13.91066,21.36945 3.08237,30.54351 2.72833,11.44619 7.62053,22.47083 21.29639,10.6482 7.47505,-5.41684 13.44772,-11.20928 17.93381,-17.37337 0.64549,-3.74455 1.43852,-10.14373 2.05896,-13.91334 0.62044,-3.76961 1.06829,-4.90965 1.02341,-9.34457 2.75574,-2.19416 5.27478,-5.09843 7.28561,-9.52733 2.07652,-5.72072 1.93687,-10.99821 0.28021,-15.97229 -9.29102,-7.32483 -16.19919,-17.7661 -31.94458,-6.44497 z"
       id="path4"
       sodipodi:nodetypes="cccccccccc" /><path
       d="m 129.71217,294.32599 c -10.31489,10.59858 -13.91066,21.36945 3.08237,30.54351 2.72833,11.44619 7.62053,22.47083 21.29639,10.6482 7.47505,-5.41684 13.44772,-11.20928 17.93381,-17.37337 0.64549,-3.74456 1.43852,-10.14373 2.05896,-13.91334 -17.76324,10.77207 -28.42767,13.32446 -31.99331,7.65721 2.15969,-9.57932 -1.83559,-15.45518 -12.37822,-17.56221 z"
       style="display:inline;fill:#41675c;fill-opacity:1;stroke:none;stroke-width:4;stroke-linejoin:round;paint-order:stroke fill markers"
       id="path1-1"
       sodipodi:nodetypes="ccccccc" /><path
       style="opacity:1;fill:#41675c;fill-opacity:1;stroke:none;stroke-width:4;stroke-linejoin:round;stroke-opacity:1;paint-order:stroke fill markers"
       d="m 168.56841,289.33843 c 0.85862,3.56656 3.03818,5.41589 6.5387,5.54799 2.76919,-2.95238 7.5483,-6.34804 7.72756,-15.45511 0.0737,-3.74562 -4.23031,12.51834 -14.26626,9.90712 z"
       id="path6"
       sodipodi:nodetypes="ccsc" /><path
       style="display:inline;opacity:1;fill:#97bf5c;fill-opacity:1;stroke:#000000;stroke-width:4;stroke-linejoin:round;stroke-opacity:1;paint-order:stroke fill markers"
       d="m 329.22574,321.78713 c 11.95587,-5.3241 18.30743,-4.29664 19.05467,3.08237 12.9205,2.63232 16.45875,14.05561 10.08776,26.06006 9.06031,8.49988 7.09881,16.43932 -2.52193,24.9392 l -12.60971,9.52734 c -6.35156,12.98333 -14.1976,14.01078 -23.53812,3.08237 -4.57686,-2.33513 -8.03285,-8.03285 -10.36798,-17.09316 0.0934,-4.29664 -4.67026,-14.57122 -14.291,-30.82373 -2.14832,-5.4175 -1.30767,-11.58224 2.52194,-18.49423 3.13605,-1.64175 4.91405,-4.0637 8.09123,-3.43265 12.17024,-10.65151 13.46119,-10.02061 23.57314,3.15243 z"
       id="path7"
       sodipodi:nodetypes="ccccccccccc" /><path
       d="m 305.6526,318.6347 c -1.57825,4.93219 -5.5493,11.93447 6.47998,23.94933 4.73976,24.9499 20.33016,38.51892 29.70287,23.50765 8.87349,3.16562 14.3844,-1.88841 16.53272,-15.16212 9.06031,8.49988 7.09881,16.43932 -2.52193,24.9392 l -12.60971,9.52734 c -6.35156,12.98333 -14.1976,14.01078 -23.53812,3.08237 -4.57686,-2.33513 -8.03285,-8.03285 -10.36798,-17.09316 0.0934,-4.29664 -4.67026,-14.57122 -14.291,-30.82373 -2.14832,-5.4175 -1.30767,-11.58224 2.52194,-18.49423 m 0,0 c 3.13605,-1.64175 4.91405,-4.0637 8.09123,-3.43265"
       style="fill:#41675c;fill-opacity:1;stroke:none;stroke-width:4;stroke-linejoin:round;stroke-opacity:1;paint-order:stroke fill markers"
       id="path1-2"
       sodipodi:nodetypes="cccccccccccc" /><path
       d="m 273.73148,487.77446 q -3.17447,0 -5.58983,-1.79427 -2.76041,-2.0703 -2.76041,-5.10676 -3.17447,-8.35024 -4.0026,-13.59502 -0.82812,-5.24477 -5.45181,-29.74341 -3.51952,-18.56376 -4.69269,-29.81243 -6.14192,22.77338 -13.18096,38.57673 -8.14321,18.28772 -10.55857,28.63925 0.82812,1.58724 0.82812,3.10546 0,3.10547 -2.76041,5.10676 -2.48437,1.86328 -5.65884,1.86328 -9.31638,0 -9.31638,-8.35024 l -2.13932,-8.7643 -7.52212,-33.81503 Q 196.44,416.96994 185.60539,385.0182 q -0.48307,-1.51823 -0.48307,-2.76041 0,-6.41796 7.24607,-6.41796 4.48567,0 6.90103,4.89973 1.24218,2.48437 5.03775,14.28512 4.0716,12.49086 8.14321,30.08847 l 6.69399,30.50253 q 7.3841,-17.11454 14.69918,-41.68219 4.48567,-14.97522 6.83202,-20.77208 6.21092,-15.25127 12.07679,-15.25127 4.83072,0 6.83202,4.89973 2.48437,5.93488 5.03775,28.2942 1.3802,11.31768 4.69269,27.19004 l 5.93488,27.12103 q 9.24738,-22.2213 23.11844,-60.10793 0.75911,-2.07031 3.45051,-13.04294 2.0013,-8.0742 4.89973,-12.55986 2.48437,-3.79557 6.48696,-3.79557 6.97004,0 6.97004,6.90103 0,1.17317 -2.20833,6.90102 l -2.76041,7.45311 -3.79557,12.28383 -20.49604,49.8254 q -2.82942,8.21222 -9.73044,23.87754 -2.48437,4.62369 -7.45311,4.62369 z M 345.2261,393.7825 q -3.3125,0 -5.72786,-2.34635 -2.41535,-2.34635 -2.41535,-5.65884 0,-3.31249 2.41535,-5.65884 2.41536,-2.34635 5.72786,-2.34635 3.31249,0 5.65884,2.34635 2.41535,2.34635 2.41535,5.65884 0,3.31249 -2.41535,5.65884 -2.34635,2.34635 -5.65884,2.34635 z m 3.10546,56.03632 q 0,4.14062 0.20703,12.42185 0.27604,8.21222 0.27604,12.35283 0,3.03645 -1.86328,4.96874 -1.86327,1.93229 -4.89973,1.93229 -2.96744,0 -4.89972,-1.93229 -1.86328,-1.93229 -1.86328,-4.96874 0,-4.14061 -0.27604,-12.35283 -0.20703,-8.28123 -0.20703,-12.42185 0,-6.48696 0.6901,-16.1484 0.6901,-9.73044 0.6901,-16.21741 0,-3.10546 1.86328,-5.03774 1.93229,-1.93229 4.89973,-1.93229 2.96744,0 4.83071,1.93229 1.93229,1.93228 1.93229,5.03774 0,6.48697 -0.6901,16.21741 -0.6901,9.66144 -0.6901,16.1484 z m 80.81099,34.16008 q -3.79556,0 -5.86587,-4.0026 -3.58853,-6.97003 -10.83461,-16.49345 l -12.21481,-16.63147 q -4.0026,3.17447 -12.42185,8.90232 -0.75911,10.69659 -0.75911,20.8411 0,3.10546 -1.93229,5.03775 -1.86327,1.93228 -4.83071,1.93228 -6.97004,0 -6.97004,-9.38539 0,-5.72785 0.75911,-17.11454 0.82813,-11.4557 0.82813,-17.18355 0,-10.48956 0.27604,-23.94656 0.34505,-13.52601 0.34505,-23.87755 0,-3.10546 -0.34505,-7.31508 -0.27604,-4.20963 -0.27604,-7.31509 0,-3.10546 1.86327,-5.03775 1.93229,-1.93229 4.89973,-1.93229 2.96744,0 4.83072,1.93229 1.93229,1.93229 1.93229,5.03775 0,3.17447 0.34505,7.52212 0.34505,4.27863 0.34505,7.4531 l -0.48307,22.2213 q -0.34505,12.00779 -0.20703,24.01557 9.38539,-7.17707 18.08068,-15.73434 l 15.18226,-15.66532 q 2.27733,-2.34635 4.89972,-2.34635 2.6914,0 4.83072,2.13932 2.20833,2.13931 2.20833,4.96873 0,2.34635 -2.0013,4.62369 -8.48826,9.93748 -20.9101,21.32417 l 15.04423,20.49604 q 10.55857,14.42315 10.55857,18.77079 0,2.76041 -2.20833,4.76171 -2.13932,2.0013 -4.96874,2.0013 z m 32.02077,-90.1964 q -3.31249,0 -5.72785,-2.34635 -2.41536,-2.34635 -2.41536,-5.65884 0,-3.31249 2.41536,-5.65884 2.41536,-2.34635 5.72785,-2.34635 3.31249,0 5.65884,2.34635 2.41536,2.34635 2.41536,5.65884 0,3.31249 -2.41536,5.65884 -2.34635,2.34635 -5.65884,2.34635 z m 3.10546,56.03632 q 0,4.14062 0.20703,12.42185 0.27604,8.21222 0.27604,12.35283 0,3.03645 -1.86327,4.96874 -1.86328,1.93229 -4.89973,1.93229 -2.96744,0 -4.89973,-1.93229 -1.86328,-1.93229 -1.86328,-4.96874 0,-4.14061 -0.27604,-12.35283 -0.20703,-8.28123 -0.20703,-12.42185 0,-6.48696 0.69011,-16.1484 0.6901,-9.73044 0.6901,-16.21741 0,-3.10546 1.86327,-5.03774 1.93229,-1.93229 4.89973,-1.93229 2.96744,0 4.83072,1.93229 1.93229,1.93228 1.93229,5.03774 0,6.48697 -0.69011,16.21741 -0.6901,9.66144 -0.6901,16.1484 z"
       id="text7"
       style="font-size:141.333px;font-family:'Comic Sans MS';-inkscape-font-specification:'Comic Sans MS';stroke:#ffffff;stroke-width:16;stroke-linecap:round;stroke-linejoin:round;paint-order:stroke fill markers"
       aria-label="Wiki" /></g></svg>
